<svg width="96" height="96" viewBox="0 0 96 96" fill="none" xmlns="http://www.w3.org/2000/svg">
<rect width="96" height="96" rx="48" fill="#BEC372"/>
<path d="M32.25 25.8824C32.25 22.3253 33.6723 18.914 36.2041 16.3988C38.7358 13.8836 42.1696 12.4706 45.75 12.4706H53.625L54.3 11.5765C55.1383 10.466 56.2254 9.56471 57.4751 8.94395C58.7248 8.32318 60.1028 8 61.5 8V14.7059C62.8972 15.7469 64.0312 17.0969 64.8123 18.6488C65.5934 20.2007 66 21.912 66 23.6471H68.25C68.8467 23.6471 69.419 23.8826 69.841 24.3018C70.2629 24.721 70.5 25.2895 70.5 25.8824V30.3529C70.5 30.9458 70.2629 31.5143 69.841 31.9335C69.419 32.3527 68.8467 32.5882 68.25 32.5882H66C65.6511 33.6295 65.0627 34.5756 64.2816 35.3516C63.5005 36.1276 62.5481 36.7122 61.5 37.0588V43.7647C61.5 44.3575 61.2629 44.9261 60.841 45.3453C60.419 45.7645 59.8467 46 59.25 46H54.75C54.1533 46 53.581 45.7645 53.159 45.3453C52.7371 44.9261 52.5 44.3575 52.5 43.7647V39.2941H45.75V43.7647C45.75 44.3575 45.5129 44.9261 45.091 45.3453C44.669 45.7645 44.0967 46 43.5 46H39C38.4033 46 37.831 45.7645 37.409 45.3453C36.9871 44.9261 36.75 44.3575 36.75 43.7647V37.0588C35.3528 36.0178 34.2188 34.6678 33.4377 33.1159C32.6566 31.564 32.25 29.8527 32.25 28.1176V25.8824ZM32.25 25.8824H30C28.8065 25.8824 27.6619 25.4113 26.818 24.5729C25.9741 23.7345 25.5 22.5974 25.5 21.4118V19.1765M57 23.6471H57.0225" stroke="white" stroke-width="3" stroke-linecap="round" stroke-linejoin="round"/>
<path d="M47.1826 71.9805V74.3271H25.4561V71.9805H30.5186V68.9482C28.7256 68.1968 27.6973 66.9971 27.6973 65.4414C27.6973 62.5938 31.0459 60.9062 36.293 60.9062C41.54 60.9062 44.8623 62.5938 44.8887 65.4414C44.8755 67.0103 43.8472 68.21 42.041 68.9482V71.9805H47.1826ZM36.293 75.7773C41.4346 75.751 44.5195 77.2803 44.5459 80.0225C44.5195 82.791 41.4346 84.2939 36.293 84.2939C31.0986 84.2939 27.9873 82.791 27.9873 80.0225C27.9873 77.2803 31.0986 75.751 36.293 75.7773ZM36.293 77.9922C32.8125 77.9922 30.9404 78.6777 30.9668 80.0225C30.9404 81.3672 32.8125 82.0791 36.293 82.0791C39.6943 82.0791 41.5928 81.3672 41.6191 80.0225C41.5928 78.6777 39.6943 77.9922 36.293 77.9922ZM36.293 63.1738C32.7598 63.1738 30.7295 63.9648 30.7559 65.4414C30.7295 66.8916 32.7598 67.6562 36.293 67.6562C39.7998 67.6562 41.8564 66.8916 41.8564 65.4414C41.8564 63.9648 39.7998 63.1738 36.293 63.1738ZM33.4717 71.9805H39.1143V69.7129C38.2573 69.8315 37.3081 69.8975 36.293 69.8975C35.2778 69.8975 34.3286 69.8315 33.4717 69.7129V71.9805ZM70.5439 72.7979V75.1445H48.791V72.7979H58.1777V70.2139H51.4541V61.6973H67.9072V64.0703H54.3809V67.8408H68.1182V70.2139H61.1309V72.7979H70.5439ZM68.2764 81.499V83.8721H51.4805V76.9375H54.3545V81.499H68.2764Z" fill="white"/>
</svg>
