<svg width="30" height="21" viewBox="0 0 30 21" fill="none" xmlns="http://www.w3.org/2000/svg">
<path d="M6.48002 12.3271L11.8331 17.6801C12.2087 18.0558 12.3887 18.494 12.3731 18.9949C12.3574 19.4958 12.1774 19.934 11.8331 20.3097C11.4574 20.6853 11.0113 20.881 10.4948 20.8966C9.97828 20.9123 9.5322 20.7323 9.15654 20.3566L0.56348 11.7636C0.187827 11.3879 0 10.9497 0 10.4488C0 9.94792 0.187827 9.50966 0.56348 9.13401L9.15654 0.54094C9.5322 0.165287 9.97828 -0.0147131 10.4948 0.000939133C11.0113 0.0165913 11.4574 0.212244 11.8331 0.587897C12.1774 0.96355 12.3574 1.40181 12.3731 1.90268C12.3887 2.40355 12.2087 2.84182 11.8331 3.21747L6.48002 8.57053H27.4227C27.9548 8.57053 28.4009 8.75053 28.7609 9.11053C29.1209 9.47053 29.3009 9.91662 29.3009 10.4488C29.3009 10.981 29.1209 11.4271 28.7609 11.7871C28.4009 12.1471 27.9548 12.3271 27.4227 12.3271H6.48002Z" fill="#1C1B1F"/>
</svg>
