<svg width="22" height="25" viewBox="0 0 22 25" fill="none" xmlns="http://www.w3.org/2000/svg">
<path d="M8.92117 22.1501C9.10646 22.4845 9.37297 22.7622 9.69389 22.9553C10.0148 23.1484 10.3789 23.25 10.7494 23.25C11.12 23.25 11.484 23.1484 11.805 22.9553C12.1259 22.7622 12.3924 22.4845 12.5777 22.1501M1.52579 15.9087C1.38789 16.0662 1.29689 16.262 1.26385 16.4724C1.23082 16.6828 1.25717 16.8987 1.3397 17.0938C1.42223 17.2889 1.55739 17.4548 1.72873 17.5713C1.90007 17.6878 2.10021 17.7499 2.30481 17.7501H19.194C19.3986 17.7501 19.5988 17.6883 19.7702 17.572C19.9417 17.4557 20.077 17.29 20.1598 17.095C20.2425 16.9001 20.2691 16.6843 20.2364 16.4738C20.2036 16.2634 20.1128 16.0674 19.9752 15.9098C18.5713 14.4017 17.0829 12.799 17.0829 7.85003C17.0829 6.09959 16.4156 4.42085 15.2279 3.1831C14.0401 1.94536 12.4292 1.25 10.7494 1.25C9.06969 1.25 7.45875 1.94536 6.27099 3.1831C5.08324 4.42085 4.41596 6.09959 4.41596 7.85003C4.41596 12.799 2.92654 14.4017 1.52579 15.9087Z" stroke="black" stroke-width="2.5" stroke-linecap="round" stroke-linejoin="round"/>
</svg>
