<svg width="32" height="32" viewBox="0 0 32 32" fill="none" xmlns="http://www.w3.org/2000/svg">
<g filter="url(#filter0_d_56_275)">
<path d="M14 16V15M14 22V20M14 22C12.8954 22 12 22.8954 12 24C12 25.1046 12.8954 26 14 26C15.1046 26 16 25.1046 16 24C16 22.8954 15.1046 22 14 22ZM14 11V10M18 6V10C18 10.5304 18.2107 11.0391 18.5858 11.4142C18.9609 11.7893 19.4696 12 20 12H24M19.5 26H22C22.5304 26 23.0391 25.7893 23.4142 25.4142C23.7893 25.0391 24 24.5304 24 24V11L19 6H10C9.46957 6 8.96086 6.21071 8.58579 6.58579C8.21071 6.96086 8 7.46957 8 8V24C8.00007 24.355 8.09464 24.7036 8.274 25.01" stroke="#848D00" stroke-width="2" stroke-linecap="round" stroke-linejoin="round" shape-rendering="crispEdges"/>
</g>
<defs>
<filter id="filter0_d_56_275" x="6" y="5" width="20" height="24" filterUnits="userSpaceOnUse" color-interpolation-filters="sRGB">
<feFlood flood-opacity="0" result="BackgroundImageFix"/>
<feColorMatrix in="SourceAlpha" type="matrix" values="0 0 0 0 0 0 0 0 0 0 0 0 0 0 0 0 0 0 127 0" result="hardAlpha"/>
<feOffset dy="1"/>
<feGaussianBlur stdDeviation="0.5"/>
<feComposite in2="hardAlpha" operator="out"/>
<feColorMatrix type="matrix" values="0 0 0 0 0 0 0 0 0 0 0 0 0 0 0 0 0 0 0.1 0"/>
<feBlend mode="normal" in2="BackgroundImageFix" result="effect1_dropShadow_56_275"/>
<feBlend mode="normal" in="SourceGraphic" in2="effect1_dropShadow_56_275" result="shape"/>
</filter>
</defs>
</svg>
