<svg width="62" height="62" viewBox="0 0 62 62" fill="none" xmlns="http://www.w3.org/2000/svg">
<rect width="62" height="62" rx="31" fill="#BEC372"/>
<mask id="mask0_223_1638" style="mask-type:alpha" maskUnits="userSpaceOnUse" x="11" y="3" width="39" height="40">
<rect x="11" y="3.74707" width="38.5057" height="38.5057" fill="#D9D9D9"/>
</mask>
<g mask="url(#mask0_223_1638)">
<path d="M20.6262 37.4396C20.1716 37.4396 19.7906 37.2858 19.4831 36.9783C19.1756 36.6708 19.0218 36.2898 19.0218 35.8352V21.3955C18.1394 21.3955 17.384 21.0813 16.7556 20.453C16.1272 19.8246 15.813 19.0692 15.813 18.1867V9.68339C15.813 9.3625 15.9199 9.0951 16.1339 8.88118C16.3478 8.66726 16.6152 8.5603 16.9361 8.5603C17.257 8.5603 17.5244 8.66726 17.7383 8.88118C17.9522 9.0951 18.0592 9.3625 18.0592 9.68339V14.9779H19.5031V9.68339C19.5031 9.3625 19.6101 9.0951 19.824 8.88118C20.0379 8.66726 20.3053 8.5603 20.6262 8.5603C20.9471 8.5603 21.2145 8.66726 21.4284 8.88118C21.6423 9.0951 21.7493 9.3625 21.7493 9.68339V14.9779H23.1932V9.68339C23.1932 9.3625 23.3002 9.0951 23.5141 8.88118C23.7281 8.66726 23.9955 8.5603 24.3163 8.5603C24.6372 8.5603 24.9046 8.66726 25.1185 8.88118C25.3325 9.0951 25.4394 9.3625 25.4394 9.68339V18.1867C25.4394 19.0692 25.1252 19.8246 24.4968 20.453C23.8684 21.0813 23.113 21.3955 22.2306 21.3955V35.8352C22.2306 36.2898 22.0769 36.6708 21.7693 36.9783C21.4618 37.2858 21.0808 37.4396 20.6262 37.4396ZM31.857 37.4396C31.4025 37.4396 31.0214 37.2858 30.7139 36.9783C30.4064 36.6708 30.2526 36.2898 30.2526 35.8352V21.2351C29.1295 20.7003 28.314 19.8647 27.8059 18.7282C27.2978 17.5918 27.0438 16.3951 27.0438 15.1384C27.0438 13.4537 27.465 11.9362 28.3073 10.5859C29.1496 9.23549 30.3328 8.5603 31.857 8.5603C33.3812 8.5603 34.5645 9.23549 35.4068 10.5859C36.2491 11.9362 36.6702 13.4537 36.6702 15.1384C36.6702 16.3951 36.4162 17.5918 35.9082 18.7282C35.4001 19.8647 34.5845 20.7003 33.4614 21.2351V35.8352C33.4614 36.2898 33.3077 36.6708 33.0002 36.9783C32.6927 37.2858 32.3116 37.4396 31.857 37.4396ZM39.8791 37.4396C39.4245 37.4396 39.0434 37.2858 38.7359 36.9783C38.4284 36.6708 38.2747 36.2898 38.2747 35.8352V10.4455C38.2747 9.9909 38.4217 9.60985 38.7159 9.30234C39.01 8.99483 39.3844 8.84107 39.8389 8.84107C41.0422 8.84107 42.152 9.48284 43.1681 10.7664C44.1842 12.0499 44.6923 13.4537 44.6923 14.9779V22.9999C44.6923 23.4545 44.5385 23.8356 44.231 24.1431C43.9235 24.4506 43.5424 24.6043 43.0879 24.6043H41.4835V35.8352C41.4835 36.2898 41.3297 36.6708 41.0222 36.9783C40.7147 37.2858 40.3336 37.4396 39.8791 37.4396Z" fill="white"/>
</g>
<path d="M23.6767 46.5437C23.6767 48.0544 24.6161 49.4763 26.4443 50.0476L25.746 51.1648C24.4194 50.7205 23.4736 49.8508 22.9657 48.7273C22.4389 49.9333 21.4804 50.8918 20.122 51.3552L19.4111 50.2507C21.2646 49.616 22.2167 48.1052 22.2167 46.5437V45.4519H23.6767V46.5437ZM28.9579 52.2947V56.3826H27.5361V53.4246H21.1249V52.2947H28.9579ZM28.9579 44.906V51.7742H27.5361V44.906H28.9579ZM40.1806 44.906V56.3953H38.7587V44.906H40.1806ZM32.6523 45.8455V48.7146H35.4325V45.8455H36.829V53.6912H31.2431V45.8455H32.6523ZM32.6523 52.5359H35.4325V49.8191H32.6523V52.5359Z" fill="white"/>
</svg>
