<svg width="62" height="62" viewBox="0 0 62 62" fill="none" xmlns="http://www.w3.org/2000/svg">
<rect width="62" height="62" rx="31" fill="#C7D22E"/>
<mask id="mask0_223_1636" style="mask-type:alpha" maskUnits="userSpaceOnUse" x="11" y="3" width="39" height="40">
<rect x="11" y="3.5" width="39" height="39" fill="#D9D9D9"/>
</mask>
<g mask="url(#mask0_223_1636)">
<path d="M27.25 37.625C25.4625 37.625 23.9323 36.9885 22.6594 35.7156C21.3865 34.4427 20.75 32.9125 20.75 31.125C20.75 29.3375 21.3865 27.8073 22.6594 26.5344C23.9323 25.2615 25.4625 24.625 27.25 24.625C27.8729 24.625 28.4484 24.6995 28.9766 24.8484C29.5047 24.9974 30.0125 25.2208 30.5 25.5188V10C30.5 9.53958 30.6557 9.15365 30.9672 8.84219C31.2786 8.53073 31.6646 8.375 32.125 8.375H38.625C39.0854 8.375 39.4714 8.53073 39.7828 8.84219C40.0943 9.15365 40.25 9.53958 40.25 10V13.25C40.25 13.7104 40.0943 14.0964 39.7828 14.4078C39.4714 14.7193 39.0854 14.875 38.625 14.875H33.75V31.125C33.75 32.9125 33.1135 34.4427 31.8406 35.7156C30.5677 36.9885 29.0375 37.625 27.25 37.625Z" fill="white"/>
</g>
<path d="M23.0312 45.9912C24.0723 45.9912 24.9292 46.5688 25.4434 47.5781H28.1221V45.1533H29.5186V56.6426H28.1221V52.3008H25.5449C25.0498 53.4434 24.1421 54.1035 23.0312 54.1035C21.3047 54.1035 20.0859 52.542 20.0859 50.041C20.0859 47.5654 21.3047 45.9912 23.0312 45.9912ZM23.0312 47.2607C22.0791 47.2607 21.4316 48.2891 21.4443 50.041C21.4316 51.8057 22.0791 52.834 23.0312 52.834C23.9834 52.834 24.6182 51.8057 24.6309 50.041C24.6182 48.2891 23.9834 47.2607 23.0312 47.2607ZM25.8369 48.7334C25.9194 49.1333 25.9639 49.5713 25.9639 50.041C25.9639 50.4409 25.9321 50.8091 25.875 51.1582H28.1221V48.7334H25.8369ZM40.1191 45.1533V49.6348H41.8203V50.8154H40.1191V56.6045H38.71V45.1533H40.1191ZM37.085 46.3467C37.085 49.7236 35.6885 52.6816 31.8672 54.5605L31.0674 53.4688C33.8604 52.0786 35.3711 50.1235 35.6631 47.5146H31.6895V46.3467H37.085Z" fill="white"/>
</svg>
