<svg width="62" height="62" viewBox="0 0 62 62" fill="none" xmlns="http://www.w3.org/2000/svg">
<rect width="62" height="62" rx="31" fill="#DFE678"/>
<mask id="mask0_223_1637" style="mask-type:alpha" maskUnits="userSpaceOnUse" x="11" y="3" width="40" height="40">
<rect x="11.5059" y="3.5" width="39" height="39" fill="#D9D9D9"/>
</mask>
<g mask="url(#mask0_223_1637)">
<path d="M24.5059 34.375V35.1875C24.5059 35.8646 24.2689 36.4401 23.7949 36.9141C23.321 37.388 22.7454 37.625 22.0684 37.625C21.3913 37.625 20.8158 37.388 20.3418 36.9141C19.8678 36.4401 19.6309 35.8646 19.6309 35.1875V32.6687C19.1434 32.1271 18.7507 31.5245 18.4527 30.8609C18.1548 30.1974 18.0059 29.4729 18.0059 28.6875V13.25C18.0059 11.0021 19.0486 9.35677 21.134 8.31406C23.2194 7.27135 26.51 6.75 31.0059 6.75C35.6642 6.75 38.9954 7.25104 40.9996 8.25312C43.0038 9.25521 44.0059 10.9208 44.0059 13.25V28.6875C44.0059 29.4729 43.8569 30.1974 43.559 30.8609C43.2611 31.5245 42.8684 32.1271 42.3809 32.6687V35.1875C42.3809 35.8646 42.1439 36.4401 41.6699 36.9141C41.196 37.388 40.6204 37.625 39.9434 37.625C39.2663 37.625 38.6908 37.388 38.2168 36.9141C37.7428 36.4401 37.5059 35.8646 37.5059 35.1875V34.375H24.5059ZM21.2559 19.75H40.7559V14.875H21.2559V19.75ZM25.3184 29.5C25.9954 29.5 26.571 29.263 27.0449 28.7891C27.5189 28.3151 27.7559 27.7396 27.7559 27.0625C27.7559 26.3854 27.5189 25.8099 27.0449 25.3359C26.571 24.862 25.9954 24.625 25.3184 24.625C24.6413 24.625 24.0658 24.862 23.5918 25.3359C23.1178 25.8099 22.8809 26.3854 22.8809 27.0625C22.8809 27.7396 23.1178 28.3151 23.5918 28.7891C24.0658 29.263 24.6413 29.5 25.3184 29.5ZM36.6934 29.5C37.3704 29.5 37.946 29.263 38.4199 28.7891C38.8939 28.3151 39.1309 27.7396 39.1309 27.0625C39.1309 26.3854 38.8939 25.8099 38.4199 25.3359C37.946 24.862 37.3704 24.625 36.6934 24.625C36.0163 24.625 35.4408 24.862 34.9668 25.3359C34.4928 25.8099 34.2559 26.3854 34.2559 27.0625C34.2559 27.7396 34.4928 28.3151 34.9668 28.7891C35.4408 29.263 36.0163 29.5 36.6934 29.5ZM21.9871 11.625H40.1871C39.7809 11.1646 38.9074 10.7786 37.5668 10.4672C36.2262 10.1557 34.0663 10 31.0871 10C28.1892 10 26.0699 10.1693 24.7293 10.5078C23.3887 10.8464 22.4746 11.2187 21.9871 11.625ZM24.5059 31.125H37.5059C38.3996 31.125 39.1647 30.8068 39.8012 30.1703C40.4376 29.5339 40.7559 28.7687 40.7559 27.875V23H21.2559V27.875C21.2559 28.7687 21.5741 29.5339 22.2105 30.1703C22.847 30.8068 23.6121 31.125 24.5059 31.125Z" fill="white"/>
</g>
<path d="M29.3056 46.207V47.375C29.3056 48.7969 29.3056 50.3457 28.8866 52.5928L27.5029 52.4531C27.8964 50.333 27.8964 48.7588 27.8964 47.375V47.3369H20.9521V46.207H29.3056ZM30.3593 53.9893V55.1445H19.8984V53.9893H22.247V50.333H23.6562V53.9893H25.1161V50.333H26.4999V53.9893H30.3593ZM41.5947 51.1201V52.2373H31.1083V51.1201H35.6405V50.2695H32.454V45.458H40.3378V46.5498H33.8632V47.3369H40.0585V48.3779H33.8632V49.1904H40.4267V50.2695H37.0497V51.1201H41.5947ZM36.3515 52.8721C38.8779 52.8721 40.3124 53.5449 40.3251 54.7383C40.3124 55.9697 38.8779 56.6172 36.3515 56.6172C33.787 56.6172 32.3525 55.9697 32.3525 54.7383C32.3525 53.5449 33.787 52.8721 36.3515 52.8721ZM36.3515 53.9258C34.6249 53.9258 33.7616 54.1924 33.7616 54.7383C33.7616 55.2969 34.6249 55.5635 36.3515 55.5635C38.0527 55.5635 38.9032 55.2969 38.9159 54.7383C38.9032 54.1924 38.0527 53.9258 36.3515 53.9258Z" fill="white"/>
</svg>
