<svg width="62" height="62" viewBox="0 0 62 62" fill="none" xmlns="http://www.w3.org/2000/svg">
<rect width="62" height="62" rx="31" fill="#BEC372"/>
<mask id="mask0_223_1635" style="mask-type:alpha" maskUnits="userSpaceOnUse" x="11" y="3" width="39" height="40">
<rect x="11" y="3.5" width="39" height="39" fill="#D9D9D9"/>
</mask>
<g mask="url(#mask0_223_1635)">
<path d="M22.375 39.25C21.4812 39.25 20.7161 38.9318 20.0797 38.2953C19.4432 37.6589 19.125 36.8937 19.125 36C19.125 35.1063 19.4432 34.3411 20.0797 33.7047C20.7161 33.0682 21.4812 32.75 22.375 32.75C23.2687 32.75 24.0339 33.0682 24.6703 33.7047C25.3068 34.3411 25.625 35.1063 25.625 36C25.625 36.8937 25.3068 37.6589 24.6703 38.2953C24.0339 38.9318 23.2687 39.25 22.375 39.25ZM38.625 39.25C37.7312 39.25 36.9661 38.9318 36.3297 38.2953C35.6932 37.6589 35.375 36.8937 35.375 36C35.375 35.1063 35.6932 34.3411 36.3297 33.7047C36.9661 33.0682 37.7312 32.75 38.625 32.75C39.5187 32.75 40.2839 33.0682 40.9203 33.7047C41.5568 34.3411 41.875 35.1063 41.875 36C41.875 36.8937 41.5568 37.6589 40.9203 38.2953C40.2839 38.9318 39.5187 39.25 38.625 39.25ZM20.9937 13.25L24.8937 21.375H36.2687L40.7375 13.25H20.9937ZM19.45 10H43.4187C44.0417 10 44.5156 10.2776 44.8406 10.8328C45.1656 11.388 45.1792 11.95 44.8812 12.5187L39.1125 22.9187C38.8146 23.4604 38.4151 23.8802 37.9141 24.1781C37.413 24.476 36.8646 24.625 36.2687 24.625H24.1625L22.375 27.875H40.25C40.7104 27.875 41.0964 28.0307 41.4078 28.3422C41.7193 28.6536 41.875 29.0396 41.875 29.5C41.875 29.9604 41.7193 30.3464 41.4078 30.6578C41.0964 30.9693 40.7104 31.125 40.25 31.125H22.375C21.1562 31.125 20.2354 30.5901 19.6125 29.5203C18.9896 28.4505 18.9625 27.3875 19.5312 26.3313L21.725 22.35L15.875 10H14.25C13.7896 10 13.4036 9.84427 13.0922 9.53281C12.7807 9.22135 12.625 8.83542 12.625 8.375C12.625 7.91458 12.7807 7.52865 13.0922 7.21719C13.4036 6.90573 13.7896 6.75 14.25 6.75H16.8906C17.1885 6.75 17.4729 6.83125 17.7437 6.99375C18.0146 7.15625 18.2177 7.38646 18.3531 7.68437L19.45 10Z" fill="white"/>
</g>
<path d="M23.8679 51.6787V54.0908H26.1531V51.6787H27.5623V54.0908H30.2664V55.2334H19.78V54.0908H22.4714V51.6787H23.8679ZM25.7087 46.6895C25.7087 48.3525 27.448 49.9902 29.8601 50.3584L29.2888 51.5264C27.3147 51.1772 25.7214 50.1045 24.9597 48.6445C24.1917 50.0918 22.592 51.1836 20.6433 51.5264L20.072 50.3584C22.4714 49.9775 24.198 48.3271 24.2107 46.6895V45.8389H25.7087V46.6895ZM37.7439 46.0674V47.21H36.7156V50.168C37.2297 50.1299 37.7375 50.0791 38.2263 50.0156L38.3152 51.0693C35.9792 51.4629 33.2878 51.5137 31.3582 51.5137L31.2058 50.3584L32.5134 50.3457V47.21H31.5105V46.0674H37.7439ZM40.575 45.166V52.123H39.1531V45.166H40.575ZM36.7156 52.3516C39.1531 52.3516 40.6384 53.1133 40.6384 54.4717C40.6384 55.8301 39.1531 56.6172 36.7156 56.6172C34.2654 56.6172 32.7927 55.8301 32.7927 54.4717C32.7927 53.1133 34.2654 52.3516 36.7156 52.3516ZM36.7156 53.4307C35.0906 53.4307 34.1892 53.7988 34.1892 54.4717C34.1892 55.1572 35.0906 55.5254 36.7156 55.5254C38.3279 55.5254 39.2292 55.1572 39.2292 54.4717C39.2292 53.7988 38.3279 53.4307 36.7156 53.4307ZM33.8718 50.3203C34.3606 50.314 34.8621 50.2949 35.3699 50.2568V47.21H33.8718V50.3203Z" fill="white"/>
</svg>
