<svg width="22" height="22" viewBox="0 0 22 22" fill="none" xmlns="http://www.w3.org/2000/svg">
<path d="M21.0024 19.0024H17.0024M19.0024 21.0024V17.0024M20.1884 10.0194C20.4178 10.0622 20.625 10.184 20.7741 10.3635C20.9232 10.543 21.0048 10.769 21.0048 11.0024C21.0048 11.2358 20.9232 11.4618 20.7741 11.6413C20.625 11.8208 20.4178 11.9425 20.1884 11.9854L14.6304 13.0364C14.2352 13.111 13.8718 13.3031 13.5874 13.5874C13.3031 13.8718 13.111 14.2352 13.0364 14.6304L11.9854 20.1884C11.9425 20.4178 11.8208 20.625 11.6413 20.7741C11.4618 20.9232 11.2358 21.0048 11.0024 21.0048C10.769 21.0048 10.543 20.9232 10.3635 20.7741C10.184 20.625 10.0622 20.4178 10.0194 20.1884L8.9684 14.6304C8.89375 14.2352 8.70172 13.8718 8.41737 13.5874C8.13301 13.3031 7.76954 13.111 7.3744 13.0364L1.8164 11.9854C1.587 11.9425 1.37981 11.8208 1.23072 11.6413C1.08162 11.4618 1 11.2358 1 11.0024C1 10.769 1.08162 10.543 1.23072 10.3635C1.37981 10.184 1.587 10.0622 1.8164 10.0194L7.3744 8.96839C7.76954 8.89375 8.13301 8.70172 8.41737 8.41737C8.70172 8.13301 8.89375 7.76954 8.9684 7.37439L10.0194 1.81639C10.0622 1.587 10.184 1.37981 10.3635 1.23071C10.543 1.08162 10.769 1 11.0024 1C11.2358 1 11.4618 1.08162 11.6413 1.23071C11.8208 1.37981 11.9425 1.587 11.9854 1.81639L13.0364 7.37439C13.111 7.76954 13.3031 8.13301 13.5874 8.41737C13.8718 8.70172 14.2352 8.89375 14.6304 8.96839L20.1884 10.0194ZM3.0024 5.00239C1.89783 5.00239 1.0024 4.10696 1.0024 3.00239C1.0024 1.89782 1.89783 1.00239 3.0024 1.00239C4.10697 1.00239 5.0024 1.89782 5.0024 3.00239C5.0024 4.10696 4.10697 5.00239 3.0024 5.00239Z" stroke="black" stroke-width="2" stroke-linecap="round" stroke-linejoin="round"/>
</svg>
