<svg width="19" height="19" viewBox="0 0 19 19" fill="none" xmlns="http://www.w3.org/2000/svg">
<path d="M10.35 17.1507H17.1501M12.05 3.55038L15.4501 6.95046M17.298 5.09062C17.7474 4.64132 17.9999 4.03189 18 3.3964C18.0001 2.76092 17.7477 2.15143 17.2984 1.70201C16.8491 1.2526 16.2397 1.00008 15.6042 1C14.9688 0.99992 14.3593 1.25229 13.9099 1.70159L2.56566 13.0485C2.3683 13.2453 2.22235 13.4876 2.14065 13.754L1.01779 17.4533C0.995826 17.5268 0.994167 17.6049 1.01299 17.6793C1.03182 17.7537 1.07043 17.8216 1.12472 17.8758C1.17902 17.93 1.24697 17.9685 1.32138 17.9872C1.39579 18.0059 1.47387 18.0041 1.54735 17.982L5.24743 16.86C5.51363 16.779 5.75589 16.634 5.95294 16.4375L17.298 5.09062Z" stroke="#17A1FA" stroke-width="2" stroke-linecap="round" stroke-linejoin="round"/>
</svg>
