<svg width="96" height="96" viewBox="0 0 96 96" fill="none" xmlns="http://www.w3.org/2000/svg">
<rect width="96" height="96" rx="48" fill="#D4DE47"/>
<path d="M30.5 27H65.5M48 9.5V44.5" stroke="white" stroke-width="3" stroke-linecap="round" stroke-linejoin="round"/>
<path d="M45.3633 59.0107V82.8467H42.4102V59.0107H45.3633ZM38.2441 61.542C38.2441 68.6348 35.502 74.6729 27.1436 78.6279L25.6143 76.2812C31.8501 73.3149 34.7505 69.2808 35.2646 63.8623H26.8271V61.542H38.2441ZM61.0254 61.0674V63.4668H52.7461V67.7119H60.6035V70.0322H52.7461V74.9365C56.4111 74.9102 59.272 74.7783 62.6074 74.2246L62.8711 76.5977C59.2061 77.1777 56.0156 77.3096 51.7441 77.3096H49.7666V61.0674H61.0254ZM67.459 59.0107V68.2393H71.124V70.6914H67.459V82.8467H64.5322V59.0107H67.459Z" fill="white"/>
</svg>
