<svg width="19" height="14" viewBox="0 0 19 14" fill="none" xmlns="http://www.w3.org/2000/svg">
<path d="M1.05313 7.29831C0.982291 7.10585 0.982291 6.89415 1.05313 6.70169C1.74304 5.01456 2.91412 3.57202 4.41791 2.55695C5.9217 1.54188 7.69048 1 9.5 1C11.3095 1 13.0783 1.54188 14.5821 2.55695C16.0859 3.57202 17.257 5.01456 17.9469 6.70169C18.0177 6.89415 18.0177 7.10585 17.9469 7.29831C17.257 8.98544 16.0859 10.428 14.5821 11.443C13.0783 12.4581 11.3095 13 9.5 13C7.69048 13 5.9217 12.4581 4.41791 11.443C2.91412 10.428 1.74304 8.98544 1.05313 7.29831Z" fill="#D9D9D9"/>
<path d="M9.5 9.57166C10.9083 9.57166 12.0499 8.42029 12.0499 7C12.0499 5.57971 10.9083 4.42834 9.5 4.42834C8.09174 4.42834 6.95013 5.57971 6.95013 7C6.95013 8.42029 8.09174 9.57166 9.5 9.57166Z" fill="#D9D9D9"/>
<path d="M1.05313 7.29831C0.982291 7.10585 0.982291 6.89415 1.05313 6.70169C1.74304 5.01456 2.91412 3.57202 4.41791 2.55695C5.9217 1.54188 7.69048 1 9.5 1C11.3095 1 13.0783 1.54188 14.5821 2.55695C16.0859 3.57202 17.257 5.01456 17.9469 6.70169C18.0177 6.89415 18.0177 7.10585 17.9469 7.29831C17.257 8.98544 16.0859 10.428 14.5821 11.443C13.0783 12.4581 11.3095 13 9.5 13C7.69048 13 5.9217 12.4581 4.41791 11.443C2.91412 10.428 1.74304 8.98544 1.05313 7.29831Z" stroke="white" stroke-width="2" stroke-linecap="round" stroke-linejoin="round"/>
<path d="M9.5 9.57166C10.9083 9.57166 12.0499 8.42029 12.0499 7C12.0499 5.57971 10.9083 4.42834 9.5 4.42834C8.09174 4.42834 6.95013 5.57971 6.95013 7C6.95013 8.42029 8.09174 9.57166 9.5 9.57166Z" stroke="white" stroke-width="2" stroke-linecap="round" stroke-linejoin="round"/>
</svg>
