<svg width="30" height="30" viewBox="0 0 30 30" fill="none" xmlns="http://www.w3.org/2000/svg">
<path d="M18.8 22.85H12.05M22.85 17.45H12.05M3.95 28.25H25.55C26.2661 28.25 26.9528 27.9655 27.4592 27.4592C27.9655 26.9528 28.25 26.2661 28.25 25.55V3.95C28.25 3.23392 27.9655 2.54716 27.4592 2.04081C26.9528 1.53446 26.2661 1.25 25.55 1.25H9.35C8.63392 1.25 7.94716 1.53446 7.44081 2.04081C6.93446 2.54716 6.65 3.23392 6.65 3.95V25.55C6.65 26.2661 6.36554 26.9528 5.85919 27.4592C5.35284 27.9655 4.66608 28.25 3.95 28.25ZM3.95 28.25C3.23392 28.25 2.54716 27.9655 2.04081 27.4592C1.53446 26.9528 1.25 26.2661 1.25 25.55V13.4C1.25 12.6839 1.53446 11.9972 2.04081 11.4908C2.54716 10.9845 3.23392 10.7 3.95 10.7H6.65M13.4 6.65H21.5C22.2456 6.65 22.85 7.25442 22.85 8V10.7C22.85 11.4456 22.2456 12.05 21.5 12.05H13.4C12.6544 12.05 12.05 11.4456 12.05 10.7V8C12.05 7.25442 12.6544 6.65 13.4 6.65Z" stroke="black" stroke-width="2.5" stroke-linecap="round" stroke-linejoin="round"/>
</svg>
