<svg width="32" height="32" viewBox="0 0 32 32" fill="none" xmlns="http://www.w3.org/2000/svg">
<g filter="url(#filter0_d_56_211)">
<path d="M7.45 14.4118C7.45 12.5396 8.17696 10.7442 9.47096 9.42042C10.765 8.09664 12.52 7.35294 14.35 7.35294H18.375L18.72 6.88235C19.1485 6.2979 19.7041 5.82353 20.3428 5.49681C20.9816 5.17009 21.6859 5 22.4 5V8.52941C23.1141 9.07734 23.6937 9.78783 24.093 10.6046C24.4922 11.4214 24.7 12.3221 24.7 13.2353H25.85C26.155 13.2353 26.4475 13.3592 26.6632 13.5799C26.8788 13.8005 27 14.0997 27 14.4118V16.7647C27 17.0767 26.8788 17.376 26.6632 17.5966C26.4475 17.8172 26.155 17.9412 25.85 17.9412H24.7C24.5216 18.4892 24.2209 18.9872 23.8217 19.3956C23.4225 19.804 22.9357 20.1117 22.4 20.2941V23.8235C22.4 24.1355 22.2788 24.4348 22.0632 24.6554C21.8475 24.8761 21.555 25 21.25 25H18.95C18.645 25 18.3525 24.8761 18.1368 24.6554C17.9212 24.4348 17.8 24.1355 17.8 23.8235V21.4706H14.35V23.8235C14.35 24.1355 14.2288 24.4348 14.0132 24.6554C13.7975 24.8761 13.505 25 13.2 25H10.9C10.595 25 10.3025 24.8761 10.0868 24.6554C9.87116 24.4348 9.75 24.1355 9.75 23.8235V20.2941C9.03587 19.7462 8.45625 19.0357 8.05704 18.2189C7.65783 17.4021 7.45 16.5014 7.45 15.5882V14.4118ZM7.45 14.4118H6.3C5.69 14.4118 5.10499 14.1639 4.67365 13.7226C4.24232 13.2813 4 12.6829 4 12.0588V10.8824M20.1 13.2353H20.1115" stroke="#848D00" stroke-width="2" stroke-linecap="round" stroke-linejoin="round" shape-rendering="crispEdges"/>
</g>
<circle cx="12" cy="7" r="3.35" fill="white" stroke="#848D00" stroke-width="1.3"/>
<path d="M12 12C13 12.5 15.3 11.9 16.5 9.5" stroke="#848D00" stroke-linecap="round"/>
<defs>
<filter id="filter0_d_56_211" x="2" y="4" width="27" height="24" filterUnits="userSpaceOnUse" color-interpolation-filters="sRGB">
<feFlood flood-opacity="0" result="BackgroundImageFix"/>
<feColorMatrix in="SourceAlpha" type="matrix" values="0 0 0 0 0 0 0 0 0 0 0 0 0 0 0 0 0 0 127 0" result="hardAlpha"/>
<feOffset dy="1"/>
<feGaussianBlur stdDeviation="0.5"/>
<feComposite in2="hardAlpha" operator="out"/>
<feColorMatrix type="matrix" values="0 0 0 0 0 0 0 0 0 0 0 0 0 0 0 0 0 0 0.1 0"/>
<feBlend mode="normal" in2="BackgroundImageFix" result="effect1_dropShadow_56_211"/>
<feBlend mode="normal" in="SourceGraphic" in2="effect1_dropShadow_56_211" result="shape"/>
</filter>
</defs>
</svg>
