<svg width="32" height="32" viewBox="0 0 32 32" fill="none" xmlns="http://www.w3.org/2000/svg">
<path d="M24.45 27.35C24.45 25.0426 23.5334 22.8297 21.9018 21.1982C20.2703 19.5666 18.0574 18.65 15.75 18.65M15.75 18.65C13.4426 18.65 11.2297 19.5666 9.59817 21.1982C7.96661 22.8297 7.05 25.0426 7.05 27.35M15.75 18.65C18.9533 18.65 21.55 16.0533 21.55 12.85C21.55 9.64675 18.9533 7.05 15.75 7.05C12.5467 7.05 9.95 9.64675 9.95 12.85C9.95 16.0533 12.5467 18.65 15.75 18.65ZM30.25 15.75C30.25 23.7581 23.7581 30.25 15.75 30.25C7.74187 30.25 1.25 23.7581 1.25 15.75C1.25 7.74187 7.74187 1.25 15.75 1.25C23.7581 1.25 30.25 7.74187 30.25 15.75Z" stroke="black" stroke-width="2.5" stroke-linecap="round" stroke-linejoin="round"/>
</svg>
