<svg width="24" height="24" viewBox="0 0 24 24" fill="none" xmlns="http://www.w3.org/2000/svg">
<g filter="url(#filter0_d_85_107)">
<path d="M18.09 9.37C19.0353 9.72243 19.8765 10.3075 20.5358 11.0712C21.195 11.8349 21.6511 12.7524 21.8617 13.7391C22.0724 14.7257 22.0309 15.7495 21.741 16.7158C21.4512 17.6822 20.9223 18.5598 20.2034 19.2676C19.4845 19.9754 18.5987 20.4905 17.628 20.7652C16.6572 21.04 15.6329 21.0655 14.6497 20.8395C13.6665 20.6134 12.7561 20.1431 12.0028 19.472C11.2495 18.8009 10.6776 17.9507 10.34 17M7 5H8V9M16.71 12.88L17.41 13.59L14.59 16.41M14 7C14 10.3137 11.3137 13 8 13C4.68629 13 2 10.3137 2 7C2 3.68629 4.68629 1 8 1C11.3137 1 14 3.68629 14 7Z" stroke="#848D00" stroke-width="2" stroke-linecap="round" stroke-linejoin="round" shape-rendering="crispEdges"/>
</g>
<defs>
<filter id="filter0_d_85_107" x="0" y="0" width="23.9941" height="23.9919" filterUnits="userSpaceOnUse" color-interpolation-filters="sRGB">
<feFlood flood-opacity="0" result="BackgroundImageFix"/>
<feColorMatrix in="SourceAlpha" type="matrix" values="0 0 0 0 0 0 0 0 0 0 0 0 0 0 0 0 0 0 127 0" result="hardAlpha"/>
<feOffset dy="1"/>
<feGaussianBlur stdDeviation="0.5"/>
<feComposite in2="hardAlpha" operator="out"/>
<feColorMatrix type="matrix" values="0 0 0 0 0 0 0 0 0 0 0 0 0 0 0 0 0 0 0.25 0"/>
<feBlend mode="normal" in2="BackgroundImageFix" result="effect1_dropShadow_85_107"/>
<feBlend mode="normal" in="SourceGraphic" in2="effect1_dropShadow_85_107" result="shape"/>
</filter>
</defs>
</svg>
