<svg width="32" height="32" viewBox="0 0 32 32" fill="none" xmlns="http://www.w3.org/2000/svg">
<g filter="url(#filter0_d_56_256)">
<path d="M19 18C19.2 17 19.7 16.3 20.5 15.5C21.5 14.6 22 13.3 22 12C22 10.4087 21.3679 8.88258 20.2426 7.75736C19.1174 6.63214 17.5913 6 16 6C14.4087 6 12.8826 6.63214 11.7574 7.75736C10.6321 8.88258 10 10.4087 10 12C10 13 10.2 14.2 11.5 15.5C12.2 16.2 12.8 17 13 18M13 22H19M14 26H18" stroke="#848D00" stroke-width="2" stroke-linecap="round" stroke-linejoin="round" shape-rendering="crispEdges"/>
</g>
<path d="M19.2975 8.30248C19.3416 8.41375 19.3514 8.53567 19.3257 8.65257L19.0062 9.63957C18.9959 9.68962 18.9986 9.74147 19.0139 9.79021C19.0293 9.83894 19.0569 9.88295 19.094 9.91805C19.1311 9.95314 19.1766 9.97817 19.2262 9.99076C19.2757 10.0033 19.3276 10.0031 19.377 9.98996L20.4009 9.69057C20.5112 9.66868 20.6255 9.67825 20.7306 9.71817C21.3712 10.0173 22.0969 10.0806 22.7796 9.89688C23.4624 9.71314 24.0583 9.29416 24.4622 8.71388C24.8661 8.1336 25.0521 7.4293 24.9874 6.72525C24.9226 6.0212 24.6113 5.36264 24.1083 4.86576C23.6053 4.36888 22.943 4.06562 22.2382 4.00948C21.5334 3.95333 20.8314 4.14792 20.2561 4.55891C19.6808 4.96989 19.2692 5.57086 19.0938 6.25578C18.9184 6.94071 18.9905 7.66557 19.2975 8.30248Z" fill="white"/>
<path d="M21.1269 6.09989C21.1974 5.89939 21.3367 5.73033 21.5199 5.62264C21.7031 5.51494 21.9186 5.47558 22.1281 5.51151C22.3375 5.54744 22.5275 5.65635 22.6644 5.81895C22.8013 5.98155 22.8762 6.18735 22.8759 6.39989C22.8759 6.99989 21.9759 7.29988 21.9759 7.29988" fill="white"/>
<path d="M21.9999 8.49987H22.0029H21.9999Z" fill="white"/>
<path d="M21.1269 6.09989C21.1974 5.89939 21.3367 5.73033 21.5199 5.62264C21.7031 5.51494 21.9186 5.47558 22.1281 5.51151C22.3375 5.54744 22.5275 5.65635 22.6644 5.81895C22.8013 5.98155 22.8762 6.18735 22.8759 6.39989C22.8759 6.99989 21.9759 7.29988 21.9759 7.29988M21.9999 8.49987H22.0029M19.2975 8.30248C19.3416 8.41375 19.3514 8.53567 19.3257 8.65257L19.0062 9.63957C18.9959 9.68962 18.9986 9.74147 19.0139 9.79021C19.0293 9.83894 19.0569 9.88295 19.094 9.91805C19.1311 9.95314 19.1766 9.97817 19.2262 9.99076C19.2757 10.0033 19.3276 10.0031 19.377 9.98996L20.4009 9.69057C20.5112 9.66868 20.6255 9.67825 20.7306 9.71817C21.3712 10.0173 22.0969 10.0806 22.7796 9.89688C23.4624 9.71314 24.0583 9.29416 24.4622 8.71388C24.8661 8.1336 25.0521 7.4293 24.9874 6.72525C24.9226 6.0212 24.6113 5.36264 24.1083 4.86576C23.6053 4.36888 22.943 4.06562 22.2382 4.00948C21.5334 3.95333 20.8314 4.14792 20.2561 4.55891C19.6808 4.96989 19.2692 5.57086 19.0938 6.25578C18.9184 6.94071 18.9905 7.66557 19.2975 8.30248Z" stroke="#848D00" stroke-width="1.2" stroke-linecap="round" stroke-linejoin="round"/>
<defs>
<filter id="filter0_d_56_256" x="8" y="5" width="16" height="24" filterUnits="userSpaceOnUse" color-interpolation-filters="sRGB">
<feFlood flood-opacity="0" result="BackgroundImageFix"/>
<feColorMatrix in="SourceAlpha" type="matrix" values="0 0 0 0 0 0 0 0 0 0 0 0 0 0 0 0 0 0 127 0" result="hardAlpha"/>
<feOffset dy="1"/>
<feGaussianBlur stdDeviation="0.5"/>
<feComposite in2="hardAlpha" operator="out"/>
<feColorMatrix type="matrix" values="0 0 0 0 0 0 0 0 0 0 0 0 0 0 0 0 0 0 0.1 0"/>
<feBlend mode="normal" in2="BackgroundImageFix" result="effect1_dropShadow_56_256"/>
<feBlend mode="normal" in="SourceGraphic" in2="effect1_dropShadow_56_256" result="shape"/>
</filter>
</defs>
</svg>
