<svg width="96" height="96" viewBox="0 0 96 96" fill="none" xmlns="http://www.w3.org/2000/svg">
<rect width="96" height="96" rx="48" fill="#DFE678"/>
<path d="M45.9758 33H49.9704C51.0299 33 52.0459 32.5786 52.7951 31.8284C53.5442 31.0783 53.9651 30.0609 53.9651 29C53.9651 27.9391 53.5442 26.9217 52.7951 26.1716C52.0459 25.4214 51.0299 25 49.9704 25H43.9785C42.7801 25 41.7815 25.4 41.1823 26.2L29.9973 37M37.9866 45L41.1823 42.2C41.7815 41.4 42.7801 41 43.9785 41H51.9677C54.1648 41 56.1621 40.2 57.5602 38.6L66.7479 29.8C67.5186 29.0707 67.9684 28.0646 67.9984 27.0031C68.0284 25.9417 67.636 24.9118 66.9076 24.14C66.1793 23.3682 65.1746 22.9178 64.1145 22.8878C63.0545 22.8578 62.026 23.2507 61.2552 23.98L52.8665 31.78M28 35L39.9839 47M61.7546 21C61.7546 24.2033 59.1613 26.8 55.9624 26.8C52.7634 26.8 50.1702 24.2033 50.1702 21C50.1702 17.7967 52.7634 15.2 55.9624 15.2C59.1613 15.2 61.7546 17.7967 61.7546 21ZM41.9812 13C41.9812 16.3137 39.2985 19 35.9892 19C32.68 19 29.9973 16.3137 29.9973 13C29.9973 9.68629 32.68 7 35.9892 7C39.2985 7 41.9812 9.68629 41.9812 13Z" stroke="white" stroke-width="3" stroke-linecap="round" stroke-linejoin="round"/>
<path d="M31.0195 75.0898V77.832H41.5928V75.0898H44.4932V85.0566H28.1455V75.0898H31.0195ZM31.0195 82.6836H41.5928V80.0996H31.0195V82.6836ZM44.5723 62.5391V64.3848C44.5723 66.1909 44.5723 68.1816 43.9922 70.9766H47.2354V73.3232H25.4561V70.9766H41.0918C41.5928 68.4585 41.6455 66.5601 41.6455 64.8857H28.1455V62.5391H44.5723ZM55.3037 63.251C57.4658 63.251 59.2456 64.4507 60.3135 66.5469H65.877V61.5107H68.7773V85.373H65.877V76.3555H60.5244C59.4961 78.7285 57.6108 80.0996 55.3037 80.0996C51.7178 80.0996 49.1865 76.8564 49.1865 71.6621C49.1865 66.5205 51.7178 63.251 55.3037 63.251ZM55.3037 65.8877C53.3262 65.8877 51.9814 68.0234 52.0078 71.6621C51.9814 75.3271 53.3262 77.4629 55.3037 77.4629C57.2812 77.4629 58.5996 75.3271 58.626 71.6621C58.5996 68.0234 57.2812 65.8877 55.3037 65.8877ZM61.1309 68.9463C61.3022 69.7769 61.3945 70.6865 61.3945 71.6621C61.3945 72.4927 61.3286 73.2573 61.21 73.9824H65.877V68.9463H61.1309Z" fill="white"/>
</svg>
