<svg width="26" height="32" viewBox="0 0 26 32" fill="none" xmlns="http://www.w3.org/2000/svg">
<path d="M7.91667 25.3333H17.4167C17.8653 25.3333 18.2413 25.1816 18.5448 24.8781C18.8483 24.5747 19 24.1986 19 23.75C19 23.3014 18.8483 22.9253 18.5448 22.6219C18.2413 22.3184 17.8653 22.1667 17.4167 22.1667H7.91667C7.46806 22.1667 7.09201 22.3184 6.78854 22.6219C6.48507 22.9253 6.33333 23.3014 6.33333 23.75C6.33333 24.1986 6.48507 24.5747 6.78854 24.8781C7.09201 25.1816 7.46806 25.3333 7.91667 25.3333ZM7.91667 19H17.4167C17.8653 19 18.2413 18.8483 18.5448 18.5448C18.8483 18.2413 19 17.8653 19 17.4167C19 16.9681 18.8483 16.592 18.5448 16.2885C18.2413 15.9851 17.8653 15.8333 17.4167 15.8333H7.91667C7.46806 15.8333 7.09201 15.9851 6.78854 16.2885C6.48507 16.592 6.33333 16.9681 6.33333 17.4167C6.33333 17.8653 6.48507 18.2413 6.78854 18.5448C7.09201 18.8483 7.46806 19 7.91667 19ZM3.16667 31.6667C2.29583 31.6667 1.55035 31.3566 0.930208 30.7365C0.31007 30.1163 0 29.3708 0 28.5V3.16667C0 2.29583 0.31007 1.55035 0.930208 0.930208C1.55035 0.310069 2.29583 0 3.16667 0H14.5271C14.9493 0 15.3517 0.0791667 15.7344 0.2375C16.117 0.395833 16.4535 0.620139 16.7437 0.910417L24.4229 8.58958C24.7132 8.87986 24.9375 9.21632 25.0958 9.59896C25.2542 9.9816 25.3333 10.384 25.3333 10.8062V28.5C25.3333 29.3708 25.0233 30.1163 24.4031 30.7365C23.783 31.3566 23.0375 31.6667 22.1667 31.6667H3.16667ZM14.25 9.5V3.16667H3.16667V28.5H22.1667V11.0833H15.8333C15.3847 11.0833 15.0087 10.9316 14.7052 10.6281C14.4017 10.3247 14.25 9.94861 14.25 9.5Z" fill="#2B2B27"/>
</svg>
