<svg width="24" height="24" viewBox="0 0 24 24" fill="none" xmlns="http://www.w3.org/2000/svg">
<path d="M9.39961 3.33462C9.46113 2.69584 9.76174 2.10266 10.2427 1.67094C10.7237 1.23923 11.3504 1 12.0006 1C12.6507 1 13.2774 1.23923 13.7584 1.67094C14.2394 2.10266 14.54 2.69584 14.6015 3.33462C14.6385 3.74726 14.7756 4.14503 15.0014 4.49427C15.2271 4.84351 15.5348 5.13393 15.8983 5.34096C16.2619 5.54798 16.6706 5.66552 17.0899 5.68361C17.5092 5.7017 17.9268 5.61982 18.3072 5.4449C18.898 5.18018 19.5674 5.14188 20.1852 5.33744C20.803 5.53301 21.325 5.94845 21.6496 6.50291C21.9741 7.05737 22.0781 7.71119 21.9411 8.33711C21.8042 8.96303 21.4362 9.51628 20.9088 9.88917C20.5653 10.127 20.2849 10.443 20.0914 10.8104C19.8978 11.1779 19.7967 11.5859 19.7967 12C19.7967 12.4141 19.8978 12.8221 20.0914 13.1896C20.2849 13.557 20.5653 13.873 20.9088 14.1108C21.4362 14.4837 21.8042 15.037 21.9411 15.6629C22.0781 16.2888 21.9741 16.9426 21.6496 17.4971C21.325 18.0516 20.803 18.467 20.1852 18.6626C19.5674 18.8581 18.898 18.8198 18.3072 18.5551C17.9268 18.3802 17.5092 18.2983 17.0899 18.3164C16.6706 18.3345 16.2619 18.452 15.8983 18.659C15.5348 18.8661 15.2271 19.1565 15.0014 19.5057C14.7756 19.855 14.6385 20.2527 14.6015 20.6654C14.54 21.3042 14.2394 21.8973 13.7584 22.3291C13.2774 22.7608 12.6507 23 12.0006 23C11.3504 23 10.7237 22.7608 10.2427 22.3291C9.76174 21.8973 9.46113 21.3042 9.39961 20.6654C9.3627 20.2526 9.22554 19.8547 8.99975 19.5053C8.77395 19.1559 8.46617 18.8654 8.10247 18.6584C7.73877 18.4513 7.32988 18.3338 6.91041 18.3159C6.49094 18.2979 6.07326 18.38 5.69275 18.5551C5.10198 18.8198 4.43256 18.8581 3.81475 18.6626C3.19695 18.467 2.67497 18.0516 2.35041 17.4971C2.02585 16.9426 1.92193 16.2888 2.05886 15.6629C2.1958 15.037 2.5638 14.4837 3.09125 14.1108C3.43471 13.873 3.71508 13.557 3.90864 13.1896C4.1022 12.8221 4.20325 12.4141 4.20325 12C4.20325 11.5859 4.1022 11.1779 3.90864 10.8104C3.71508 10.443 3.43471 10.127 3.09125 9.88917C2.56454 9.51609 2.19719 8.96306 2.06058 8.33756C1.92398 7.71207 2.02788 7.05879 2.35209 6.50468C2.6763 5.95058 3.19766 5.53524 3.81486 5.33937C4.43205 5.14351 5.10097 5.18112 5.69163 5.4449C6.0721 5.61982 6.48966 5.7017 6.90898 5.68361C7.3283 5.66552 7.73703 5.54798 8.10058 5.34096C8.46412 5.13393 8.77178 4.84351 8.99751 4.49427C9.22324 4.14503 9.3604 3.74726 9.39738 3.33462M15.3496 12.0006C15.3496 13.8264 13.8499 15.3065 12 15.3065C10.1501 15.3065 8.65042 13.8264 8.65042 12.0006C8.65042 10.1747 10.1501 8.69463 12 8.69463C13.8499 8.69463 15.3496 10.1747 15.3496 12.0006Z" stroke="black" stroke-width="2" stroke-linecap="round" stroke-linejoin="round"/>
</svg>
