<svg width="57" height="46" viewBox="0 0 57 46" fill="none" xmlns="http://www.w3.org/2000/svg">
<path d="M11.6875 45.25L6.75 25.4375H0V19.75H5.375L0.4375 0H8.125L12.5625 19.75H19.5625L24.3125 0H31.75L36.5 19.75H43.625L48 0H55.625L50.75 19.75H56.0625V25.4375H49.3125L44.375 45.25H36.375L31.5 25.4375H24.5625L19.6875 45.25H11.6875ZM13.8125 25.4375L15.6875 34H16.125L18.1875 25.4375H13.8125ZM25.9375 19.75H30.125L28.1875 11.875H27.875L25.9375 19.75ZM37.875 25.4375L39.9375 34.0625H40.375L42.3125 25.4375H37.875Z" fill="#616161"/>
</svg>
